<?xml version="1.0" standalone="no"?>
<!DOCTYPE svg PUBLIC "-//W3C//DTD SVG 20010904//EN"
 "http://www.w3.org/TR/2001/REC-SVG-20010904/DTD/svg10.dtd">
<svg version="1.0" xmlns="http://www.w3.org/2000/svg"
 width="260.000000pt" height="260.000000pt" viewBox="0 0 260.000000 260.000000"
 preserveAspectRatio="xMidYMid meet">
<metadata>
Created by potrace 1.11, written by Peter Selinger 2001-2013
</metadata>
<g transform="translate(0.000000,260.000000) scale(0.100000,-0.100000)"
fill="#000000" stroke="none">
<path d="M410 1695 l0 -95 145 0 145 0 0 -395 0 -395 105 0 105 0 0 395 0 395
150 0 150 0 0 95 0 95 -400 0 -400 0 0 -95z"/>
<path d="M1390 1300 l0 -490 283 0 c311 1 333 4 420 66 66 47 97 116 97 218 0
61 -5 90 -21 124 -19 38 -73 89 -112 106 -7 3 -1 13 16 26 15 12 39 43 54 68
24 40 28 58 27 122 0 88 -23 141 -81 189 -69 57 -98 61 -405 61 l-278 0 0
-490z m511 297 c63 -42 58 -146 -8 -180 -28 -15 -129 -23 -235 -19 l-58 2 0
110 0 110 134 0 c122 0 136 -2 167 -23z m14 -391 c58 -25 82 -104 50 -165 -25
-50 -66 -61 -224 -61 l-141 0 0 120 0 120 140 0 c99 0 151 -4 175 -14z"/>
</g>
</svg>
